<svg width="589" height="589" viewBox="0 0 589 589" fill="none" xmlns="http://www.w3.org/2000/svg">
<path d="M258.235 165.453H436.847C438.228 165.453 439.814 166.471 440.389 167.726L544.576 394.914C551.828 410.727 543.603 423.547 526.206 423.547H273.095L197.879 259.532C174.051 207.574 201.074 165.453 258.235 165.453Z" fill="black" stroke="black" stroke-width="23"/>
<path d="M130.361 176.897C135.788 164.804 150.932 155 164.187 155H418.053C433.517 155 440.921 166.437 434.59 180.546L321.685 432.175C321.232 433.183 319.97 434 318.866 434H59.9997C35.1469 434 23.2475 415.618 33.4217 392.944L130.361 176.897Z" fill="black"/>
<path d="M430.501 183.29C431.9 180.097 436.429 180.097 437.828 183.29L530.855 395.595C534.329 403.524 528.521 412.411 519.864 412.411H348.465C339.808 412.411 334 403.524 337.474 395.595L430.501 183.29Z" fill="white"/>
<rect x="423.645" y="167.179" width="21.0413" height="253.013" fill="black"/>
<path d="M173.008 246.085L164.587 245.6L157.081 262.328C156.102 264.51 155.75 266.086 156.023 267.055C156.385 268.025 157.585 268.51 159.623 268.51C161.749 268.51 163.308 268.591 164.298 268.753C165.414 268.833 166.447 269.197 167.397 269.844C168.963 270.894 168.767 273.601 166.809 277.965C164.525 283.056 161.889 286.168 158.9 287.299C157.317 287.865 155.958 288.229 154.823 288.39C153.812 288.471 152.332 288.511 150.383 288.511C141.169 288.511 135.022 286.612 131.942 282.814C128.862 279.016 129.353 272.591 133.414 263.54L141.464 245.6C139.672 245.842 137.801 245.963 135.852 245.963C133.903 245.963 132.572 245.276 131.86 243.903C131.236 242.529 131.667 240.185 133.154 236.872C134.641 233.558 135.932 231.174 137.028 229.72C138.159 228.184 139.269 227.093 140.357 226.447C142.246 225.396 144.253 224.871 146.379 224.871L150.547 225.356L156.15 212.87C156.984 211.012 157.644 209.638 158.132 208.749C158.708 207.86 159.586 206.89 160.766 205.84C162.824 203.819 166.688 202.809 172.359 202.809C178.383 202.809 181.3 204.304 181.11 207.294C180.973 208.587 180.27 210.648 179.001 213.476L173.671 225.356C177.714 225.033 180.71 224.871 182.659 224.871C184.697 224.871 186.167 224.952 187.069 225.114C188.095 225.194 189.128 225.558 190.167 226.204C191.999 227.255 191.755 230.366 189.434 235.538C187.15 240.63 184.558 243.741 181.658 244.872C180.075 245.438 178.716 245.802 177.58 245.963C176.57 246.044 175.045 246.085 173.008 246.085Z" fill="white"/>
<path d="M196.881 235.296C197.715 233.437 198.376 232.063 198.863 231.174C199.476 230.205 200.364 229.114 201.528 227.902C203.711 225.8 207.638 224.75 213.308 224.75C217.56 224.75 220.264 225.437 221.42 226.811C222.418 227.942 222.436 229.679 221.473 232.023C221.199 232.831 220.718 234.003 220.029 235.538L200.992 277.965C200.158 279.824 199.435 281.238 198.822 282.208C198.335 283.097 197.465 284.147 196.212 285.36C194.118 287.461 190.235 288.511 184.565 288.511C178.984 288.511 176.062 287.42 175.801 285.238C175.725 284.026 175.797 282.976 176.019 282.087C176.329 281.198 176.92 279.784 177.79 277.844L196.881 235.296ZM228.738 212.87C227.61 214.002 226.096 214.81 224.195 215.295C222.294 215.78 219.926 216.022 217.091 216.022C214.345 216.022 212.238 215.78 210.773 215.295C209.307 214.81 208.492 213.961 208.327 212.749C208.251 211.537 208.323 210.486 208.545 209.597C208.892 208.628 209.482 207.213 210.316 205.355C211.15 203.496 211.811 202.122 212.298 201.233C212.91 200.263 213.78 199.213 214.908 198.082C217.128 195.9 221.072 194.809 226.742 194.809C232.324 194.809 235.201 195.9 235.374 198.082C235.538 199.294 235.448 200.385 235.101 201.354C234.879 202.243 234.352 203.617 233.518 205.476C232.684 207.335 231.96 208.749 231.348 209.719C230.861 210.608 229.991 211.658 228.738 212.87Z" fill="white"/>
<path d="M294.362 198.082C295.615 196.869 297.192 196.021 299.093 195.536C300.993 195.051 303.317 194.809 306.064 194.809C308.899 194.809 311.049 195.051 312.515 195.536C313.98 196.021 314.751 196.869 314.828 198.082C314.993 199.294 314.902 200.385 314.555 201.354C314.334 202.243 313.806 203.617 312.972 205.476L280.5 277.844C279.666 279.703 278.943 281.117 278.331 282.087C277.843 282.976 276.991 283.986 275.775 285.117C273.467 287.299 269.212 288.39 263.011 288.39C256.897 288.39 254.375 286.41 255.443 282.45C249.981 286.329 243.928 288.269 237.284 288.269C229.31 288.269 223.46 285.117 219.732 278.814C216.041 272.43 216.08 265.035 219.851 256.631C223.659 248.145 230.273 240.71 239.693 234.326C249.203 227.942 257.9 224.75 265.785 224.75C272.341 224.75 276.528 226.77 278.348 230.811L289.77 205.355C290.604 203.496 291.265 202.122 291.752 201.233C292.364 200.263 293.234 199.213 294.362 198.082ZM243.299 263.904C244.624 266.086 246.925 267.177 250.203 267.177C253.481 267.177 256.673 266.086 259.778 263.904C262.972 261.722 265.149 259.338 266.309 256.752C267.506 254.085 267.549 251.62 266.438 249.357C265.415 247.095 263.132 245.963 259.589 245.963C256.045 245.963 252.702 247.095 249.561 249.357C246.455 251.539 244.304 253.964 243.108 256.631C241.911 259.297 241.975 261.722 243.299 263.904Z" fill="white"/>
<path d="M378.457 225.356C382.741 227.457 384.212 230.003 382.871 232.993C382.218 234.447 381.247 235.821 379.958 237.114C378.669 238.407 378.007 239.094 377.971 239.175L311.28 310.21C309.882 311.745 308.736 312.917 307.842 313.725C307.036 314.533 305.939 315.301 304.549 316.028C303.16 316.756 301.668 317.119 300.073 317.119C298.478 317.119 296.402 316.513 293.845 315.301C289.561 313.2 288.072 310.695 289.377 307.785C290.247 305.846 298.652 296.593 314.59 280.026L306.366 239.417C305.79 236.751 305.793 234.771 306.373 233.478C307.533 230.892 311.086 228.306 317.03 225.72C320.768 224.103 323.478 223.295 325.161 223.295C326.845 223.295 328.073 223.618 328.846 224.265C329.619 224.911 330.064 225.598 330.18 226.326C330.422 226.972 331.172 230.73 332.431 237.599C333.815 244.387 335.177 250.731 336.517 256.631C337.54 255.338 342.162 250.368 350.383 241.721C358.64 232.993 363.029 228.346 363.548 227.78C364.156 227.215 364.996 226.528 366.068 225.72C367.836 224.346 369.739 223.659 371.776 223.659C373.903 223.659 376.129 224.225 378.457 225.356Z" fill="white"/>
<path d="M88.212 349.828C86.9429 352.657 86.9793 354.879 88.3213 356.495C89.6936 358.044 91.524 358.819 93.8127 358.819C96.1752 358.819 98.6252 358.213 101.162 357C103.804 355.721 105.752 355.081 107.007 355.081C109.222 355.081 111.116 356.866 112.689 360.435C113.511 362.388 113.574 364.139 112.879 365.688C111.731 368.247 108.628 370.638 103.57 372.86C98.1533 375.554 92.3809 376.901 86.2531 376.901C79.387 376.901 73.7916 374.645 69.4668 370.133C67.4068 367.978 66.2177 365.115 65.8997 361.546C65.6119 357.91 66.4349 353.936 68.3688 349.626C70.3329 345.249 73.0604 341.309 76.5513 337.807C80.0723 334.238 83.8298 331.376 87.8238 329.221C95.9459 324.776 103.477 322.554 110.417 322.554C113.222 322.554 115.788 322.924 118.113 323.665C120.469 324.339 122.123 325.012 123.076 325.685L124.395 326.696C125.361 327.504 126.108 328.143 126.635 328.615C127.95 329.962 128.215 331.511 127.429 333.262C126.673 334.945 125.037 336.865 122.52 339.02C118.2 342.723 114.822 344.575 112.385 344.575C110.983 344.575 109.322 343.835 107.402 342.353C106.587 341.208 104.925 340.636 102.414 340.636C99.978 340.636 97.3267 341.444 94.4604 343.06C91.5942 344.676 89.5114 346.932 88.212 349.828Z" fill="white"/>
<path d="M174.452 328.817C176.587 325.046 180.349 323.16 185.739 323.16C188.618 323.16 190.669 323.362 191.89 323.766C193.111 324.17 193.754 324.877 193.817 325.887C193.955 326.898 193.879 327.807 193.59 328.615C193.406 329.356 192.966 330.501 192.271 332.049L176.407 367.405C175.712 368.954 175.109 370.133 174.599 370.941C174.193 371.682 173.504 372.557 172.534 373.567C170.715 375.318 167.775 376.194 163.715 376.194C159.728 376.194 157.23 375.756 156.22 374.88C155.314 373.938 155.143 372.591 155.707 370.84C151.374 374.409 145.996 376.194 139.572 376.194C133.223 376.194 128.51 373.533 125.434 368.213C122.358 362.893 122.391 356.731 125.534 349.727C128.707 342.656 134.203 336.494 142.024 331.241C149.948 325.921 157.195 323.261 163.766 323.261C166.276 323.261 168.384 323.665 170.088 324.473C171.793 325.281 172.885 326.056 173.365 326.797C173.875 327.47 174.237 328.143 174.452 328.817ZM144.869 349.828C143.872 352.051 143.925 354.071 145.028 355.889C146.162 357.64 148.095 358.516 150.827 358.516C153.559 358.516 156.218 357.607 158.806 355.788C161.468 353.97 163.282 351.983 164.249 349.828C165.246 347.606 165.282 345.552 164.356 343.666C163.504 341.781 161.601 340.838 158.648 340.838C155.769 340.838 152.983 341.781 150.291 343.666C147.673 345.552 145.866 347.606 144.869 349.828Z" fill="white"/>
<path d="M220.961 330.231C226.577 325.45 231.821 323.059 236.693 323.059C244.224 323.059 248.521 325.988 249.583 331.847C250.848 330.837 252.277 329.793 253.868 328.716C255.562 327.571 257.952 326.359 261.036 325.079C264.151 323.732 267.037 323.059 269.695 323.059C275.601 323.059 279.611 325.147 281.724 329.322C283.868 333.43 282.794 340.265 278.503 349.828L270.571 367.506C269.876 369.055 269.274 370.234 268.764 371.042C268.357 371.783 267.632 372.658 266.588 373.668C264.813 375.486 261.562 376.396 256.837 376.396C252.186 376.396 249.767 375.453 249.579 373.567C249.516 372.557 249.576 371.682 249.761 370.941C250.05 370.133 250.542 368.954 251.237 367.405L259.169 349.727C261.798 343.868 260.823 340.939 256.246 340.939C253.662 340.939 251.542 341.713 249.888 343.262C248.307 344.811 246.882 347 245.613 349.828L237.681 367.506C236.955 369.122 236.353 370.301 235.873 371.042C235.466 371.783 234.741 372.658 233.697 373.668C231.848 375.486 228.561 376.396 223.836 376.396C219.184 376.396 216.765 375.453 216.578 373.567C216.514 372.557 216.575 371.682 216.759 370.941C217.048 370.133 217.54 368.954 218.235 367.405L226.167 349.727C228.796 343.868 227.822 340.939 223.244 340.939C218.815 340.939 215.285 343.868 212.656 349.727L204.634 367.607C203.939 369.156 203.336 370.335 202.826 371.143C202.419 371.884 201.694 372.759 200.651 373.769C198.757 375.52 195.485 376.396 190.834 376.396C186.183 376.396 183.748 375.486 183.531 373.668C183.467 372.658 183.528 371.783 183.712 371.042C183.971 370.301 184.463 369.122 185.188 367.506L201.143 331.948C201.838 330.399 202.388 329.255 202.795 328.514C203.305 327.706 204.067 326.83 205.08 325.887C207.004 324.069 210.033 323.16 214.167 323.16C218.302 323.16 220.724 323.766 221.435 324.978C222.147 326.19 221.989 327.941 220.961 330.231Z" fill="white"/>
<path d="M268.915 390.841L295.385 331.847C296.08 330.298 296.631 329.154 297.037 328.413C297.517 327.672 298.227 326.83 299.167 325.887C301.016 324.069 303.897 323.16 307.81 323.16C311.723 323.16 314.133 323.631 315.039 324.574C316.049 325.45 316.271 326.763 315.707 328.514C320.084 325.012 325.263 323.261 331.243 323.261C337.297 323.261 341.855 325.854 344.918 331.039C347.981 336.225 347.971 342.252 344.889 349.121C341.807 355.99 336.408 362.018 328.691 367.203C321.049 372.389 314.201 374.981 308.147 374.981C302.093 374.981 298.395 373.432 297.053 370.335L287.897 390.74C287.202 392.289 286.615 393.434 286.135 394.174C285.729 394.915 285.019 395.757 284.005 396.7C283.035 397.71 281.795 398.417 280.284 398.821C278.774 399.225 276.875 399.427 274.586 399.427C272.297 399.427 270.542 399.225 269.321 398.821C268.173 398.417 267.516 397.744 267.348 396.801C267.254 395.858 267.3 395.016 267.484 394.275C267.743 393.535 268.22 392.39 268.915 390.841ZM312.191 343.262C309.677 345.081 307.936 347.067 306.969 349.222C306.002 351.377 305.96 353.364 306.842 355.182C307.828 356.933 309.65 357.809 312.308 357.809C315.04 357.809 317.721 356.933 320.353 355.182C323.058 353.431 324.909 351.445 325.906 349.222C326.904 347 326.909 345.013 325.923 343.262C324.967 341.444 323.049 340.535 320.17 340.535C317.364 340.535 314.704 341.444 312.191 343.262Z" fill="white"/>
</svg>
